#N canvas -1345 132 607 527 12;
#X msg 270 268 0;
#X msg 308 268 2;
#X obj 210 314 +;
#X floatatom 185 150 5 0 7 0 Interval - -;
#X obj 270 228 sel 0 1 2 3 4 5 6 7;
#X obj 210 191 t b f;
#X msg 388 267 5;
#X msg 427 267 7;
#X msg 542 266 12;
#X floatatom 185 127 5 0 127 0 Key_Number - -;
#X floatatom 210 230 5 0 0 0 - - -;
#X obj 185 40 loadbang;
#X msg 185 64 60;
#X obj 316 37 inlet;
#X obj 364 37 inlet;
#X obj 210 347 outlet;
#X text 484 398 Omkar Bhatt;
#X text 491 417 04/18/2021;
#X text 379 379 Key Scale - Harmonic Minor;
#X text 141 436 Take in the Key number and the corresponding internal
to get their expected output in the harmonic minor scale.;
#X msg 347 268 3;
#X msg 466 267 8;
#X msg 503 267 10;
#X connect 0 0 2 1;
#X connect 1 0 2 1;
#X connect 2 0 15 0;
#X connect 3 0 5 0;
#X connect 4 0 0 0;
#X connect 4 1 1 0;
#X connect 4 2 20 0;
#X connect 4 3 6 0;
#X connect 4 4 7 0;
#X connect 4 5 21 0;
#X connect 4 6 22 0;
#X connect 4 7 8 0;
#X connect 5 0 10 0;
#X connect 5 1 4 0;
#X connect 6 0 2 1;
#X connect 7 0 2 1;
#X connect 8 0 2 1;
#X connect 9 0 10 0;
#X connect 10 0 2 0;
#X connect 11 0 12 0;
#X connect 12 0 9 0;
#X connect 13 0 9 0;
#X connect 14 0 3 0;
#X connect 20 0 2 1;
#X connect 21 0 2 1;
#X connect 22 0 2 1;
#X coords 0 -1 1 1 130 75 1 100 100;
