#N canvas -1345 132 610 531 12;
#X msg 270 268 0;
#X obj 210 314 +;
#X floatatom 185 150 5 0 8 0 Interval - -;
#X obj 210 191 t b f;
#X floatatom 185 127 5 0 127 0 Key_Number - -;
#X floatatom 210 230 5 0 0 0 - - -;
#X obj 185 40 loadbang;
#X msg 185 64 60;
#X obj 316 37 inlet;
#X obj 364 37 inlet;
#X obj 210 347 outlet;
#X text 484 398 Omkar Bhatt;
#X text 491 417 04/18/2021;
#X text 141 436 Take in the Key number and the corresponding internal
to get their expected output in the harmonic minor scale.;
#X msg 347 268 3;
#X text 337 379 Key Scale - Octatonic Whole Half;
#X msg 427 267 6;
#X msg 503 267 9;
#X msg 577 266 12;
#X obj 271 228 sel 0 1 2 3 4 5 6 7 8;
#X msg 308 268 1;
#X msg 388 267 4;
#X msg 466 267 7;
#X msg 542 266 10;
#X connect 0 0 1 1;
#X connect 1 0 10 0;
#X connect 2 0 3 0;
#X connect 3 0 5 0;
#X connect 3 1 19 0;
#X connect 4 0 5 0;
#X connect 5 0 1 0;
#X connect 6 0 7 0;
#X connect 7 0 4 0;
#X connect 8 0 4 0;
#X connect 9 0 2 0;
#X connect 14 0 1 1;
#X connect 16 0 1 1;
#X connect 17 0 1 1;
#X connect 18 0 1 1;
#X connect 19 0 0 0;
#X connect 19 1 20 0;
#X connect 19 2 14 0;
#X connect 19 3 21 0;
#X connect 19 4 16 0;
#X connect 19 5 22 0;
#X connect 19 6 17 0;
#X connect 19 7 23 0;
#X connect 19 8 18 0;
#X connect 20 0 1 1;
#X connect 21 0 1 1;
#X connect 22 0 1 1;
#X connect 23 0 1 1;
#X coords 0 -1 1 1 130 75 1 100 100;
