#N canvas 723 160 419 464 12;
#X msg 122 261 tempo \$1 permin;
#X obj 122 287 metro;
#X obj 71 191 inlet;
#X obj 122 191 inlet;
#X text 17 68 Receives calls for the durm machine. Works well for the
custom Andromeda Blackhole Drum Kit on AbletonLive. The random generator
calls the same instrumnent's similar samples to avoid monotone.;
#X text 325 30 Omkar Bhatt;
#X text 332 49 03/29/2021;
#X text 318 11 Metro by BPM;
#X obj 122 339 outlet;
#X text 66 364 bangs by metro;
#X obj 271 404 outlet;
#X text 236 430 metro in ms;
#X obj 271 284 t b f;
#X msg 271 324 60000;
#X obj 271 367 /, f 5;
#X text 7 166 trigger/toggle;
#X text 171 190 BPM;
#X connect 0 0 1 0;
#X connect 1 0 8 0;
#X connect 2 0 1 0;
#X connect 2 0 8 0;
#X connect 3 0 0 0;
#X connect 3 0 12 0;
#X connect 12 0 13 0;
#X connect 12 1 14 1;
#X connect 13 0 14 0;
#X connect 14 0 10 0;
