#N canvas 183 194 428 621 12;
#X obj 164 166 r hi-hat-open;
#X obj 213 193 r hi-hat-close;
#X obj 263 221 r snare;
#X obj 306 248 r kick;
#X floatatom 210 552 5 0 0 0 - - -;
#X obj 164 582 noteout;
#X floatatom 215 362 5 0 0 0 - - -;
#X floatatom 266 362 5 0 0 0 - - -;
#X floatatom 187 527 5 0 0 0 - - -;
#X floatatom 164 362 5 0 0 0 - - -;
#X obj 182 430 random 4;
#X obj 164 463 +;
#X obj 164 392 t f b;
#X msg 306 325 36;
#X text 17 69 Receives calls for the durm machine. Works well for the
custom Andromeda Blackhole Drum Kit on AbletonLive. The random generator
calls the same instrumnent's similar samples to avoid monotone.;
#X msg 263 325 44;
#X msg 213 325 40;
#X msg 164 326 48;
#X obj 164 497 makenote 90 250;
#X text 325 30 Omkar Bhatt;
#X text 332 49 03/29/2021;
#X text 283 11 MIDI Drum Machine;
#X obj 306 490 loadbang;
#X msg 306 514 1;
#X connect 0 0 17 0;
#X connect 1 0 16 0;
#X connect 2 0 15 0;
#X connect 3 0 13 0;
#X connect 4 0 5 2;
#X connect 6 0 18 1;
#X connect 7 0 18 2;
#X connect 8 0 5 1;
#X connect 9 0 12 0;
#X connect 10 0 11 1;
#X connect 11 0 18 0;
#X connect 12 0 11 0;
#X connect 12 1 10 0;
#X connect 13 0 9 0;
#X connect 15 0 9 0;
#X connect 16 0 9 0;
#X connect 17 0 9 0;
#X connect 18 0 5 0;
#X connect 18 1 8 0;
#X connect 22 0 23 0;
#X connect 23 0 4 0;
