#N canvas 693 234 304 434 12;
#X obj 164 111 metro 500;
#X obj 164 135 random 8;
#X obj 164 72 tgl 15 0 empty empty empty 17 7 0 10 -262144 -1 -1 0
1;
#X obj 97 317 makenote;
#X obj 97 376 noteout;
#X floatatom 143 347 5 0 0 0 - - -;
#X floatatom 123 276 5 0 0 0 - - -;
#X floatatom 166 289 5 0 0 0 - - -;
#X msg 123 252 100;
#X msg 166 263 500;
#X obj 208 219 loadbang;
#X text 197 27 Omkar Bhatt;
#X text 204 46 04/04/2021;
#X text 92 7 Random Harmonic Major MIDI;
#X obj 41 162 key_scale/harMajor;
#X connect 0 0 1 0;
#X connect 1 0 14 1;
#X connect 2 0 0 0;
#X connect 3 0 4 0;
#X connect 3 1 4 1;
#X connect 5 0 4 2;
#X connect 6 0 3 1;
#X connect 7 0 3 2;
#X connect 8 0 6 0;
#X connect 9 0 7 0;
#X connect 10 0 9 0;
#X connect 10 0 8 0;
#X connect 14 0 3 0;
